# xmcd
# 
# Track frame offsets:
#     150
#     17756
#     37487
#     55385
#     77105
#     95378
#     112473
#     131465
#     151281
#     172726
#     196079
#     219817
# 
# Disc length: 3550
# 
# Revision: 1
# Processed by: cddbd v1.5.2PL0 Copyright (c) Steve Scherf et al.
# Submitted via: fre:ac v1.0.31
# 
DISCID=9e0ddc0c
DTITLE=Will Downing - Silver
DYEAR=2013
DGENRE=Jazz
TTITLE0=Stuff That I Like
TTITLE1=One Step Closer
TTITLE2=Falling
TTITLE3=Send For Me
TTITLE4=The Blessing
TTITLE5=What Would You Do
TTITLE6=Sexy
TTITLE7=You Were Meant Just For Me
TTITLE8=Never Find Another Love
TTITLE9=Ooh Baby Baby
TTITLE10=Only One
TTITLE11=I Go Crazy/ Wishing On A Star/ I Try (Live Rehersal)
EXTD=
EXTT0=
EXTT1=
EXTT2=
EXTT3=
EXTT4=
EXTT5=
EXTT6=
EXTT7=
EXTT8=
EXTT9=
EXTT10=
EXTT11=
PLAYORDER=
